<?xml version="1.0" standalone="no"?>
<!DOCTYPE svg PUBLIC "-//W3C//DTD SVG 20010904//EN"
 "http://www.w3.org/TR/2001/REC-SVG-20010904/DTD/svg10.dtd">
<svg version="1.0" xmlns="http://www.w3.org/2000/svg"
 width="417.000000pt" height="417.000000pt" viewBox="0 0 417.000000 417.000000"
 preserveAspectRatio="xMidYMid meet">

<g transform="translate(0.000000,417.000000) scale(0.100000,-0.100000)"
fill="#000000" stroke="none">
<path d="M1854 4055 c-660 -97 -1134 -556 -1269 -1229 -13 -67 -29 -170 -34
-230 -6 -60 -12 -110 -13 -111 -2 -1 -30 -16 -64 -34 -315 -166 -396 -589
-178 -938 87 -140 230 -264 379 -329 l60 -27 77 -156 c95 -192 181 -313 318
-451 127 -126 254 -219 411 -300 380 -195 697 -198 1072 -9 339 170 594 436
763 794 55 117 61 126 99 140 126 50 296 190 378 309 50 74 100 182 123 266
28 104 24 273 -9 376 -48 144 -147 260 -284 328 -58 30 -50 6 -74 216 -13 124
-65 334 -108 443 -133 333 -352 594 -638 758 -285 162 -671 233 -1009 184z
m383 -306 c547 -61 926 -424 1043 -1000 44 -216 44 -663 0 -950 -50 -328 -132
-539 -226 -584 -60 -28 -110 -11 -334 120 -208 121 -377 151 -565 99 -73 -20
-66 -20 -145 2 -98 28 -254 25 -350 -5 -87 -27 -137 -51 -281 -136 -178 -106
-238 -115 -304 -49 -144 144 -243 707 -215 1229 18 343 105 611 271 833 242
326 657 491 1106 441z m-1636 -1919 c11 -91 23 -181 26 -200 6 -34 5 -34 -13
-18 -29 26 -82 118 -105 182 -37 106 -24 245 29 308 l27 32 8 -69 c4 -39 17
-144 28 -235z m3064 198 c33 -111 9 -242 -64 -355 -51 -79 -66 -89 -57 -37 11
66 44 334 51 419 l7 80 24 -28 c13 -15 30 -51 39 -79z m-1360 -923 c116 -22
177 -50 228 -104 128 -136 83 -324 -96 -406 -115 -53 -231 -27 -295 65 -42 61
-58 61 -110 1 -25 -29 -63 -61 -85 -72 -128 -66 -329 28 -372 175 -19 62 -19
70 1 135 21 73 88 144 161 171 152 57 375 71 568 35z"/>
<path d="M991 2371 c-28 -28 -34 -76 -29 -226 5 -113 9 -140 30 -187 33 -71
75 -118 140 -154 l53 -29 300 0 300 0 54 30 c107 59 158 146 167 285 8 110 11
119 48 136 30 15 35 15 64 0 35 -18 39 -28 46 -136 9 -139 60 -226 167 -285
l54 -30 300 0 300 0 53 29 c65 36 107 83 140 154 21 46 25 74 30 182 6 149 -1
194 -33 226 l-24 24 -1071 0 c-1046 0 -1070 0 -1089 -19z"/>
</g>
</svg>
